<?xml version="1.0" encoding="utf-8"?>
<!-- Generator: Adobe Illustrator 19.2.1, SVG Export Plug-In . SVG Version: 6.00 Build 0)  -->
<svg version="1.1" id="layer" xmlns="http://www.w3.org/2000/svg" xmlns:xlink="http://www.w3.org/1999/xlink" x="0px" y="0px"
	 viewBox="0 0 652 652" style="enable-background:new 0 0 652 652;" xml:space="preserve">
<style type="text/css">
	.st0{fill:#E0002A;}
	.st1{fill:#231815;}
</style>
<rect x="102.5" y="264.1" class="st0" width="45.7" height="12.6"/>
<path class="st1" d="M64.4,374.4c-2.4,1.3-6.8,2.6-12.6,2.6c-18.7,0-31.2-13.9-31.2-39.8c0-23.6,13.1-41.3,34-41.3
	c4.7,0,7.7,1.1,9.8,2.3v13.7c-1.7-0.7-5.7-1.8-9.5-1.8c-11.3,0-17.1,12.3-17.1,26.8c0,16.1,6.5,26,17.1,26c3.2,0,6.9-0.6,9.5-1.9
	V374.4z"/>
<path class="st1" d="M148.2,356.9c0,6.1,0.4,13.9,1.2,19.1h-33.8c-11.3,0-19.8-9.4-19.8-23.2c0-20.3,17.1-28.8,35-29v-1.4
	c0-8.2-3.2-14-11.8-14c-5.6,0-12.1,1.7-16.4,4.4V301c3.9-2.5,10.5-5.6,20.1-5.6c20.3,0,25.5,13.2,25.5,30V356.9z M131.2,363.2
	l0-27.8c-6.7,0.1-18.9,2-18.9,15.7c0,8.9,4.7,12.1,8.5,12.1L131.2,363.2z"/>
<path class="st1" d="M241.5,357l0-84.8h-17.2v31.7h-0.3c-2.5-5.4-7.3-8.6-13.8-8.6c-12.7,0-24.6,13.3-24.6,41
	c0,23.8,8.6,39.9,23.8,39.9l33.4,0C241.9,370.9,241.5,363.1,241.5,357 M224.3,363.1h-10.1c-7.3,0-11.5-10.9-11.5-26.7
	c0-14.1,3.1-26.5,11.9-26.5c5.1,0,8.7,5.6,9.4,11.9c0.2,1.6,0.2,3.4,0.2,4.9V363.1z"/>
<path class="st1" d="M295.5,341.2c0.2,17.6,8.4,22.4,17.6,22.4c5.8,0,11.9-1.3,15.4-2.8v12.4c-4.9,2.3-11.3,3.7-18.5,3.7
	c-20.3,0-31.2-14.7-31.2-39.2c0-26.1,12.5-42,29.3-42c16.6,0,25,15,25,36.1c0,4.5-0.2,7-0.5,9.2L295.5,341.2z M316.9,328.9
	c0.1-12.6-4-20.2-10.2-20.2c-7.5,0-10.9,10.9-11.2,20.2H316.9z"/>
<path class="st1" d="M387.7,310.4v65.6h-17.3v-56.6c0-8.9-0.5-15.9-0.7-22.9h34.1c13.2,0,21,9.6,21,27.8v51.7h-17.3v-50
	c0-7.9-1.7-15.6-9.2-15.6L387.7,310.4z"/>
<path class="st1" d="M505.2,374.4c-2.4,1.3-6.8,2.6-12.6,2.6c-18.7,0-31.2-13.9-31.2-39.8c0-23.6,13.1-41.3,34-41.3
	c4.7,0,7.7,1.1,9.8,2.3v13.7c-1.7-0.7-5.7-1.8-9.5-1.8c-11.3,0-17,12.3-17,26.8c0,16.1,6.5,26,17.1,26c3.2,0,7-0.6,9.5-1.9V374.4z"
	/>
<path class="st1" d="M590.1,331.9c0-21.2-8.4-36.1-24.9-36.1c-16.8,0-29.3,15.9-29.3,42c0,24.4,10.9,39.2,31.3,39.2
	c7.2,0,13.6-1.4,18.5-3.7v-12.4c-3.5,1.5-9.6,2.8-15.4,2.8c-9.2,0-17.4-4.8-17.6-22.4l37,0C590,339,590.1,336.4,590.1,331.9
	 M552.7,328.9c0.4-9.2,3.7-20.2,11.2-20.2c6.1,0,10.3,7.5,10.2,20.2H552.7z"/>
<path class="st1" d="M607.6,274.9h2.1c1.4,0,2.6-0.2,2.6-1.9c0-1.5-1.4-1.7-2.6-1.7h-2.1V274.9z M605.3,269.5h4.7c3,0,4.6,1,4.6,3.7
	c0,2.1-1.2,3.2-3.3,3.4l3.4,5.5h-2.4l-3.2-5.4h-1.4v5.4h-2.3V269.5z M617.9,275.9c0-5.2-3.7-8.9-8.4-8.9c-4.6,0-8.4,3.7-8.4,8.9
	c0,5.2,3.7,8.9,8.4,8.9C614.2,284.8,617.9,281.1,617.9,275.9 M598.4,275.9c0-6.1,5-11.1,11.1-11.1c6.1,0,11.1,5,11.1,11.1
	c0,6.1-5,11.1-11.1,11.1C603.4,286.9,598.4,282,598.4,275.9"/>
</svg>
